<svg xmlns="http://www.w3.org/2000/svg" version="1.1" xmlns:xlink="http://www.w3.org/1999/xlink" xmlns:svgjs="http://svgjs.com/svgjs" width="1920" height="980" preserveAspectRatio="none" viewBox="0 0 1920 980"><g mask="url(&quot;#SvgjsMask2129&quot;)" fill="none"><rect width="1920" height="980" x="0" y="0" fill="url(#SvgjsLinearGradient2130)"></rect><path d="M148.64 969.69L300.2 1057.19L300.2 1232.19L148.64 1319.69L-2.92 1232.19L-2.92 1057.19zM603.32 182.19L754.88 269.69L754.88 444.69L603.32 532.19L451.76 444.69L451.76 269.69zM451.76 444.69L603.32 532.19L603.32 707.19L451.76 794.69L300.2 707.19L300.2 532.19zM603.32 707.19L754.88 794.69L754.88 969.69L603.32 1057.19L451.76 969.69L451.76 794.69zM906.43 182.19L1057.99 269.69L1057.99 444.69L906.43 532.19L754.88 444.69L754.88 269.69zM906.43 707.19L1057.99 794.69L1057.99 969.69L906.43 1057.19L754.88 969.69L754.88 794.69zM1057.99 444.69L1209.55 532.19L1209.55 707.19L1057.99 794.69L906.43 707.19L906.43 532.19zM1361.11 444.69L1512.67 532.19L1512.67 707.19L1361.11 794.69L1209.55 707.19L1209.55 532.19zM1664.23 444.69L1815.79 532.19L1815.79 707.19L1664.23 794.69L1512.67 707.19L1512.67 532.19zM1967.34 444.69L2118.9 532.19L2118.9 707.19L1967.34 794.69L1815.79 707.19L1815.79 532.19zM2118.9 707.19L2270.46 794.69L2270.46 969.69L2118.9 1057.19L1967.34 969.69L1967.34 794.69zM1967.34 969.69L2118.9 1057.19L2118.9 1232.19L1967.34 1319.69L1815.79 1232.19L1815.79 1057.19z" stroke="rgba(0, 0, 0, 0)" stroke-width="2"></path><path d="M131.14 969.69 a17.5 17.5 0 1 0 35 0 a17.5 17.5 0 1 0 -35 0zM282.7 1057.19 a17.5 17.5 0 1 0 35 0 a17.5 17.5 0 1 0 -35 0zM282.7 1232.19 a17.5 17.5 0 1 0 35 0 a17.5 17.5 0 1 0 -35 0zM131.14 1319.69 a17.5 17.5 0 1 0 35 0 a17.5 17.5 0 1 0 -35 0zM-20.42 1232.19 a17.5 17.5 0 1 0 35 0 a17.5 17.5 0 1 0 -35 0zM-20.42 1057.19 a17.5 17.5 0 1 0 35 0 a17.5 17.5 0 1 0 -35 0zM585.82 182.19 a17.5 17.5 0 1 0 35 0 a17.5 17.5 0 1 0 -35 0zM737.38 269.69 a17.5 17.5 0 1 0 35 0 a17.5 17.5 0 1 0 -35 0zM737.38 444.69 a17.5 17.5 0 1 0 35 0 a17.5 17.5 0 1 0 -35 0zM585.82 532.19 a17.5 17.5 0 1 0 35 0 a17.5 17.5 0 1 0 -35 0zM434.26 444.69 a17.5 17.5 0 1 0 35 0 a17.5 17.5 0 1 0 -35 0zM434.26 269.69 a17.5 17.5 0 1 0 35 0 a17.5 17.5 0 1 0 -35 0zM585.82 707.19 a17.5 17.5 0 1 0 35 0 a17.5 17.5 0 1 0 -35 0zM434.26 794.69 a17.5 17.5 0 1 0 35 0 a17.5 17.5 0 1 0 -35 0zM282.7 707.19 a17.5 17.5 0 1 0 35 0 a17.5 17.5 0 1 0 -35 0zM282.7 532.19 a17.5 17.5 0 1 0 35 0 a17.5 17.5 0 1 0 -35 0zM737.38 794.69 a17.5 17.5 0 1 0 35 0 a17.5 17.5 0 1 0 -35 0zM737.38 969.69 a17.5 17.5 0 1 0 35 0 a17.5 17.5 0 1 0 -35 0zM585.82 1057.19 a17.5 17.5 0 1 0 35 0 a17.5 17.5 0 1 0 -35 0zM434.26 969.69 a17.5 17.5 0 1 0 35 0 a17.5 17.5 0 1 0 -35 0zM888.93 182.19 a17.5 17.5 0 1 0 35 0 a17.5 17.5 0 1 0 -35 0zM1040.49 269.69 a17.5 17.5 0 1 0 35 0 a17.5 17.5 0 1 0 -35 0zM1040.49 444.69 a17.5 17.5 0 1 0 35 0 a17.5 17.5 0 1 0 -35 0zM888.93 532.19 a17.5 17.5 0 1 0 35 0 a17.5 17.5 0 1 0 -35 0zM888.93 707.19 a17.5 17.5 0 1 0 35 0 a17.5 17.5 0 1 0 -35 0zM1040.49 794.69 a17.5 17.5 0 1 0 35 0 a17.5 17.5 0 1 0 -35 0zM1040.49 969.69 a17.5 17.5 0 1 0 35 0 a17.5 17.5 0 1 0 -35 0zM888.93 1057.19 a17.5 17.5 0 1 0 35 0 a17.5 17.5 0 1 0 -35 0zM1192.05 532.19 a17.5 17.5 0 1 0 35 0 a17.5 17.5 0 1 0 -35 0zM1192.05 707.19 a17.5 17.5 0 1 0 35 0 a17.5 17.5 0 1 0 -35 0zM1343.61 444.69 a17.5 17.5 0 1 0 35 0 a17.5 17.5 0 1 0 -35 0zM1495.17 532.19 a17.5 17.5 0 1 0 35 0 a17.5 17.5 0 1 0 -35 0zM1495.17 707.19 a17.5 17.5 0 1 0 35 0 a17.5 17.5 0 1 0 -35 0zM1343.61 794.69 a17.5 17.5 0 1 0 35 0 a17.5 17.5 0 1 0 -35 0zM1646.73 444.69 a17.5 17.5 0 1 0 35 0 a17.5 17.5 0 1 0 -35 0zM1798.29 532.19 a17.5 17.5 0 1 0 35 0 a17.5 17.5 0 1 0 -35 0zM1798.29 707.19 a17.5 17.5 0 1 0 35 0 a17.5 17.5 0 1 0 -35 0zM1646.73 794.69 a17.5 17.5 0 1 0 35 0 a17.5 17.5 0 1 0 -35 0zM1949.84 444.69 a17.5 17.5 0 1 0 35 0 a17.5 17.5 0 1 0 -35 0zM2101.4 532.19 a17.5 17.5 0 1 0 35 0 a17.5 17.5 0 1 0 -35 0zM2101.4 707.19 a17.5 17.5 0 1 0 35 0 a17.5 17.5 0 1 0 -35 0zM1949.84 794.69 a17.5 17.5 0 1 0 35 0 a17.5 17.5 0 1 0 -35 0zM2252.96 794.69 a17.5 17.5 0 1 0 35 0 a17.5 17.5 0 1 0 -35 0zM2252.96 969.69 a17.5 17.5 0 1 0 35 0 a17.5 17.5 0 1 0 -35 0zM2101.4 1057.19 a17.5 17.5 0 1 0 35 0 a17.5 17.5 0 1 0 -35 0zM1949.84 969.69 a17.5 17.5 0 1 0 35 0 a17.5 17.5 0 1 0 -35 0zM2101.4 1232.19 a17.5 17.5 0 1 0 35 0 a17.5 17.5 0 1 0 -35 0zM1949.84 1319.69 a17.5 17.5 0 1 0 35 0 a17.5 17.5 0 1 0 -35 0zM1798.29 1232.19 a17.5 17.5 0 1 0 35 0 a17.5 17.5 0 1 0 -35 0zM1798.29 1057.19 a17.5 17.5 0 1 0 35 0 a17.5 17.5 0 1 0 -35 0z" fill="rgba(0, 0, 0, 0)"></path><path d="M159.46 469.17L332.67 569.17L332.67 769.17L159.46 869.17L-13.75 769.17L-13.75 569.17zM505.88 469.17L679.09 569.17L679.09 769.17L505.88 869.17L332.67 769.17L332.67 569.17zM679.09 769.17L852.3 869.17L852.3 1069.17L679.09 1169.17L505.88 1069.17L505.88 869.17zM1025.51 769.17L1198.72 869.17L1198.72 1069.17L1025.51 1169.17L852.3 1069.17L852.3 869.17zM1198.72 -130.83L1371.93 -30.83L1371.93 169.17L1198.72 269.17L1025.51 169.17L1025.51 -30.83zM1371.93 769.17L1545.14 869.17L1545.14 1069.17L1371.93 1169.17L1198.72 1069.17L1198.72 869.17zM1545.14 -130.83L1718.35 -30.83L1718.35 169.17L1545.14 269.17L1371.93 169.17L1371.93 -30.83zM1718.35 769.17L1891.56 869.17L1891.56 1069.17L1718.35 1169.17L1545.14 1069.17L1545.14 869.17zM2064.77 769.17L2237.98 869.17L2237.98 1069.17L2064.77 1169.17L1891.56 1069.17L1891.56 869.17z" stroke="rgba(137, 137, 137, 0.93)" stroke-width="2"></path></g><defs><mask id="SvgjsMask2129"><rect width="1920" height="980" fill="#ffffff"></rect></mask><linearGradient x1="87.76%" y1="123.98%" x2="12.24%" y2="-23.98%" gradientUnits="userSpaceOnUse" id="SvgjsLinearGradient2130"><stop stop-color="rgba(46, 46, 46, 1)" offset="0.33"></stop><stop stop-color="rgba(122, 122, 122, 1)" offset="1"></stop></linearGradient></defs></svg>