<svg xmlns="http://www.w3.org/2000/svg" version="1.1" xmlns:xlink="http://www.w3.org/1999/xlink" xmlns:svgjs="http://svgjs.com/svgjs" width="1920" height="980" preserveAspectRatio="none" viewBox="0 0 1920 980"><g mask="url(&quot;#SvgjsMask2147&quot;)" fill="none"><rect width="1920" height="980" x="0" y="0" fill="rgba(50, 50, 50, 1)"></rect><path d="M318.69 121.24L470.25 208.74L470.25 383.74L318.69 471.24L167.13 383.74L167.13 208.74zM773.37 908.74L924.92 996.24L924.92 1171.24L773.37 1258.74L621.81 1171.24L621.81 996.24zM1076.48 -141.26L1228.04 -53.76L1228.04 121.24L1076.48 208.74L924.92 121.24L924.92 -53.76zM1531.16 121.24L1682.72 208.74L1682.72 383.74L1531.16 471.24L1379.6 383.74L1379.6 208.74zM1682.72 383.74L1834.28 471.24L1834.28 646.24L1682.72 733.74L1531.16 646.24L1531.16 471.24zM1682.72 908.74L1834.28 996.24L1834.28 1171.24L1682.72 1258.74L1531.16 1171.24L1531.16 996.24zM2137.39 121.24L2288.95 208.74L2288.95 383.74L2137.39 471.24L1985.84 383.74L1985.84 208.74zM2137.39 646.24L2288.95 733.74L2288.95 908.74L2137.39 996.24L1985.84 908.74L1985.84 733.74z" stroke="rgba(0, 0, 0, 0)" stroke-width="2"></path><path d="M301.19 121.24 a17.5 17.5 0 1 0 35 0 a17.5 17.5 0 1 0 -35 0zM452.75 208.74 a17.5 17.5 0 1 0 35 0 a17.5 17.5 0 1 0 -35 0zM452.75 383.74 a17.5 17.5 0 1 0 35 0 a17.5 17.5 0 1 0 -35 0zM301.19 471.24 a17.5 17.5 0 1 0 35 0 a17.5 17.5 0 1 0 -35 0zM149.63 383.74 a17.5 17.5 0 1 0 35 0 a17.5 17.5 0 1 0 -35 0zM149.63 208.74 a17.5 17.5 0 1 0 35 0 a17.5 17.5 0 1 0 -35 0zM755.87 908.74 a17.5 17.5 0 1 0 35 0 a17.5 17.5 0 1 0 -35 0zM907.42 996.24 a17.5 17.5 0 1 0 35 0 a17.5 17.5 0 1 0 -35 0zM907.42 1171.24 a17.5 17.5 0 1 0 35 0 a17.5 17.5 0 1 0 -35 0zM755.87 1258.74 a17.5 17.5 0 1 0 35 0 a17.5 17.5 0 1 0 -35 0zM604.31 1171.24 a17.5 17.5 0 1 0 35 0 a17.5 17.5 0 1 0 -35 0zM604.31 996.24 a17.5 17.5 0 1 0 35 0 a17.5 17.5 0 1 0 -35 0zM1058.98 -141.26 a17.5 17.5 0 1 0 35 0 a17.5 17.5 0 1 0 -35 0zM1210.54 -53.76 a17.5 17.5 0 1 0 35 0 a17.5 17.5 0 1 0 -35 0zM1210.54 121.24 a17.5 17.5 0 1 0 35 0 a17.5 17.5 0 1 0 -35 0zM1058.98 208.74 a17.5 17.5 0 1 0 35 0 a17.5 17.5 0 1 0 -35 0zM907.42 121.24 a17.5 17.5 0 1 0 35 0 a17.5 17.5 0 1 0 -35 0zM907.42 -53.76 a17.5 17.5 0 1 0 35 0 a17.5 17.5 0 1 0 -35 0zM1513.66 121.24 a17.5 17.5 0 1 0 35 0 a17.5 17.5 0 1 0 -35 0zM1665.22 208.74 a17.5 17.5 0 1 0 35 0 a17.5 17.5 0 1 0 -35 0zM1665.22 383.74 a17.5 17.5 0 1 0 35 0 a17.5 17.5 0 1 0 -35 0zM1513.66 471.24 a17.5 17.5 0 1 0 35 0 a17.5 17.5 0 1 0 -35 0zM1362.1 383.74 a17.5 17.5 0 1 0 35 0 a17.5 17.5 0 1 0 -35 0zM1362.1 208.74 a17.5 17.5 0 1 0 35 0 a17.5 17.5 0 1 0 -35 0zM1816.78 471.24 a17.5 17.5 0 1 0 35 0 a17.5 17.5 0 1 0 -35 0zM1816.78 646.24 a17.5 17.5 0 1 0 35 0 a17.5 17.5 0 1 0 -35 0zM1665.22 733.74 a17.5 17.5 0 1 0 35 0 a17.5 17.5 0 1 0 -35 0zM1513.66 646.24 a17.5 17.5 0 1 0 35 0 a17.5 17.5 0 1 0 -35 0zM1665.22 908.74 a17.5 17.5 0 1 0 35 0 a17.5 17.5 0 1 0 -35 0zM1816.78 996.24 a17.5 17.5 0 1 0 35 0 a17.5 17.5 0 1 0 -35 0zM1816.78 1171.24 a17.5 17.5 0 1 0 35 0 a17.5 17.5 0 1 0 -35 0zM1665.22 1258.74 a17.5 17.5 0 1 0 35 0 a17.5 17.5 0 1 0 -35 0zM1513.66 1171.24 a17.5 17.5 0 1 0 35 0 a17.5 17.5 0 1 0 -35 0zM1513.66 996.24 a17.5 17.5 0 1 0 35 0 a17.5 17.5 0 1 0 -35 0zM2119.89 121.24 a17.5 17.5 0 1 0 35 0 a17.5 17.5 0 1 0 -35 0zM2271.45 208.74 a17.5 17.5 0 1 0 35 0 a17.5 17.5 0 1 0 -35 0zM2271.45 383.74 a17.5 17.5 0 1 0 35 0 a17.5 17.5 0 1 0 -35 0zM2119.89 471.24 a17.5 17.5 0 1 0 35 0 a17.5 17.5 0 1 0 -35 0zM1968.34 383.74 a17.5 17.5 0 1 0 35 0 a17.5 17.5 0 1 0 -35 0zM1968.34 208.74 a17.5 17.5 0 1 0 35 0 a17.5 17.5 0 1 0 -35 0zM2119.89 646.24 a17.5 17.5 0 1 0 35 0 a17.5 17.5 0 1 0 -35 0zM2271.45 733.74 a17.5 17.5 0 1 0 35 0 a17.5 17.5 0 1 0 -35 0zM2271.45 908.74 a17.5 17.5 0 1 0 35 0 a17.5 17.5 0 1 0 -35 0zM2119.89 996.24 a17.5 17.5 0 1 0 35 0 a17.5 17.5 0 1 0 -35 0zM1968.34 908.74 a17.5 17.5 0 1 0 35 0 a17.5 17.5 0 1 0 -35 0zM1968.34 733.74 a17.5 17.5 0 1 0 35 0 a17.5 17.5 0 1 0 -35 0z" fill="rgba(0, 0, 0, 0)"></path><path d="M663.53 808.44L836.74 908.44L836.74 1108.44L663.53 1208.44L490.32 1108.44L490.32 908.44zM1529.58 508.44L1702.79 608.44L1702.79 808.44L1529.58 908.44L1356.37 808.44L1356.37 608.44zM1876 -91.56L2049.21 8.44L2049.21 208.44L1876 308.44L1702.79 208.44L1702.79 8.44z" stroke="rgba(137, 137, 137, 0.93)" stroke-width="2"></path></g><defs><mask id="SvgjsMask2147"><rect width="1920" height="980" fill="#ffffff"></rect></mask></defs></svg>