<svg xmlns="http://www.w3.org/2000/svg" version="1.1" xmlns:xlink="http://www.w3.org/1999/xlink" xmlns:svgjs="http://svgjs.com/svgjs" width="1440" height="560" preserveAspectRatio="none" viewBox="0 0 1440 560"><g mask="url(&quot;#SvgjsMask1362&quot;)" fill="none"><rect width="1440" height="560" x="0" y="0" fill="url(#SvgjsLinearGradient1363)"></rect><path d="M1440 0L1168.41 0L1440 189.55z" fill="rgba(255, 255, 255, .1)"></path><path d="M1168.41 0L1440 189.55L1440 294.76L708.8600000000001 0z" fill="rgba(255, 255, 255, .075)"></path><path d="M708.86 0L1440 294.76L1440 375.9L285.13 0z" fill="rgba(255, 255, 255, .05)"></path><path d="M285.1300000000001 0L1440 375.9L1440 464.28L113.63000000000011 0z" fill="rgba(255, 255, 255, .025)"></path><path d="M0 560L574.6 560L0 311.11z" fill="rgba(0, 0, 0, .1)"></path><path d="M0 311.11L574.6 560L874.26 560L0 308.46000000000004z" fill="rgba(0, 0, 0, .075)"></path><path d="M0 308.46000000000004L874.26 560L1080.47 560L0 189.90000000000003z" fill="rgba(0, 0, 0, .05)"></path><path d="M0 189.89999999999998L1080.47 560L1246.93 560L0 94.30999999999997z" fill="rgba(0, 0, 0, .025)"></path></g><defs><mask id="SvgjsMask1362"><rect width="1440" height="560" fill="#ffffff"></rect></mask><linearGradient x1="15.28%" y1="139.29%" x2="84.72%" y2="-39.29%" gradientUnits="userSpaceOnUse" id="SvgjsLinearGradient1363"><stop stop-color="rgba(28, 6, 52, 1)" offset="0"></stop><stop stop-color="rgba(40, 40, 40, 1)" offset="1"></stop></linearGradient></defs></svg>